<?xml version="1.0" encoding="utf-8"?>
<!-- Generator: Adobe Illustrator 24.3.0, SVG Export Plug-In . SVG Version: 6.00 Build 0)  -->
<svg version="1.1" xmlns="http://www.w3.org/2000/svg" xmlns:xlink="http://www.w3.org/1999/xlink" x="0px" y="0px"
	 viewBox="0 0 525.01 157.63" style="enable-background:new 0 0 525.01 157.63;" xml:space="preserve">
<style type="text/css">
	.st0{fill:#EC6608;}
	.st1{fill:#F39200;}
	.st2{fill:#EE7203;}
</style>
<g id="Capa_2">
</g>
<g id="Capa_1">
</g>
<g id="Capa_4">
</g>
<g id="Capa_3">
	<path class="st0" d="M52.54,157.63H25.44C11.39,157.63,0,146.24,0,132.19L0,0h52.54V157.63z"/>
	<path class="st0" d="M210.17,52.54h-79.65c-14.05,0-25.44-11.39-25.44-25.44V0l79.65,0c14.05,0,25.44,11.39,25.44,25.44V52.54z"/>
	<path class="st1" d="M184.73,157.63h-27.11V52.54h52.54v79.65C210.17,146.24,198.78,157.63,184.73,157.63z"/>
	<path class="st2" d="M237.07,157.63h-27.11V0l27.11,0c14.05,0,25.44,11.39,25.44,25.44v106.75
		C262.5,146.24,251.12,157.63,237.07,157.63z"/>
	<path class="st1" d="M105.08,52.54H25.44C11.39,52.54,0,41.15,0,27.11L0,0h105.08V52.54z"/>
	<path class="st0" d="M289.61,52.54H262.5V0h52.54v27.11C315.05,41.15,303.66,52.54,289.61,52.54z"/>
	<path class="st1" d="M315.05,157.63H262.5V52.54h27.11c14.05,0,25.44,11.39,25.44,25.44V157.63z"/>
	<path class="st0" d="M420.34,52.54H315.25V25.44C315.25,11.39,326.64,0,340.69,0l79.65,0V52.54z"/>
	<path class="st1" d="M420.34,105.08h-79.65c-14.05,0-25.44-11.39-25.44-25.44V52.54h79.65c14.05,0,25.44,11.39,25.44,25.44V105.08z
		"/>
	<path class="st0" d="M394.9,157.63h-79.65v-52.54h105.08v27.11C420.34,146.24,408.95,157.63,394.9,157.63z"/>
	<path class="st1" d="M525.01,52.54H419.92V25.44C419.92,11.39,431.31,0,445.36,0l79.65,0V52.54z"/>
	<path class="st0" d="M525.01,105.08h-79.65c-14.05,0-25.44-11.39-25.44-25.44V52.54h79.65c14.05,0,25.44,11.39,25.44,25.44V105.08z
		"/>
	<path class="st1" d="M499.57,157.63h-79.65v-52.54h105.08v27.11C525.01,146.24,513.62,157.63,499.57,157.63z"/>
	<path class="st1" d="M105.08,105.08H25.44C11.39,105.08,0,93.7,0,79.65l0-27.11h79.65c14.05,0,25.44,11.39,25.44,25.44V105.08z"/>
</g>
<g id="Capa_5">
</g>
</svg>
